<?xml version="1.0" encoding="UTF-8"?>
<svg xmlns="http://www.w3.org/2000/svg" xmlns:xlink="http://www.w3.org/1999/xlink" width="20px" height="20px" viewBox="0 0 20 20" version="1.1">
<g id="surface1">
<path style=" stroke:none;fill-rule:evenodd;fill:rgb(0%,0%,0%);fill-opacity:1;" d="M 20 10 C 20 15.523438 15.523438 20 10 20 C 4.476562 20 0 15.523438 0 10 C 0 4.476562 4.476562 0 10 0 C 15.523438 0 20 4.476562 20 10 Z M 11.5625 4.6875 C 11.5625 5.550781 10.863281 6.25 10 6.25 C 9.136719 6.25 8.4375 5.550781 8.4375 4.6875 C 8.4375 3.824219 9.136719 3.125 10 3.125 C 10.863281 3.125 11.5625 3.824219 11.5625 4.6875 Z M 15 10 L 11.773438 10 L 14.007812 16.25 L 11.351562 16.25 L 10 12.464844 L 8.648438 16.25 L 5.992188 16.25 L 8.226562 10 L 5 10 L 5 7.5 L 15 7.5 Z M 15 10 "/>
</g>
</svg>
